<?xml version="1.0" standalone="no"?><!DOCTYPE svg PUBLIC "-//W3C//DTD SVG 1.1//EN" "http://www.w3.org/Graphics/SVG/1.1/DTD/svg11.dtd"><svg t="1738585187389" class="icon" viewBox="0 0 1024 1024" version="1.1" xmlns="http://www.w3.org/2000/svg" p-id="5163" xmlns:xlink="http://www.w3.org/1999/xlink" width="200" height="200"><path d="M797.590945 780.01822c-6.070252 0-11.975752-3.133364-15.259542-8.750291-4.925173-8.420787-2.090615-19.22997 6.332219-24.15412 40.406269-23.622 74.28589-57.45148 97.961102-97.830119 24.3772-41.573861 37.262672-89.184205 37.262672-137.672546 0-48.073902-12.67774-95.325066-36.667108-136.648217-23.294542-40.116673-56.669674-73.887824-96.522334-97.652064-8.376785-4.990664-11.118222-15.83157-6.123464-24.208355 4.992711-8.372691 15.833617-11.119245 24.209378-6.122441 44.99375 26.835182 82.678024 64.959477 108.97597 110.252033 27.109428 46.705742 41.441854 100.084463 41.441854 154.379043 0 54.762231-14.561647 108.550275-42.113143 155.534356-26.733874 45.589314-64.979944 83.785242-110.603027 110.455671C803.68678 779.240507 800.620955 780.01822 797.590945 780.01822L797.590945 780.01822zM704.394357 665.60747c-6.070252 0-11.975752-3.12927-15.259542-8.746198-4.925173-8.41874-2.090615-19.23611 6.330172-24.15412 20.732184-12.119015 38.112016-29.476335 50.257637-50.193169 12.503778-21.319561 19.10922-45.736671 19.10922-70.609151 0-24.658609-6.500041-48.8905-18.805298-70.081125-11.946077-20.579711-29.070082-37.907355-49.514717-50.101071-8.378831-4.991688-11.116175-15.83157-6.123464-24.207331 4.996804-8.373715 15.835663-11.115152 24.207331-6.119371 25.586748 15.256472 47.01785 36.94033 61.9704 62.696947 15.423271 26.568099 23.577998 56.936757 23.577998 87.812975 0 31.149441-8.284687 61.739133-23.959691 88.470961-15.198144 25.927509-36.948517 47.64616-62.893422 62.817698C710.488145 664.827711 707.418226 665.60747 704.394357 665.60747L704.394357 665.60747zM566.925449 906.136615c-31.956829 0-63.730487-21.708418-68.219731-24.8909l-33.998325-23.716144c-7.995091-5.575995-9.958816-16.579607-4.38282-24.581861 5.581112-7.999185 16.584724-9.957793 24.584931-4.38282l34.19787 23.852244c8.958022 6.328126 38.501896 23.121604 55.770188 17.244756 6.217608-2.118244 12.101619-4.115738 12.81691-36.707017L587.694471 191.876052c-1.828648-30.618345-8.368598-33.580816-15.926738-37.006845-16.133446-7.308453-43.536562 9.978259-51.861158 16.614399l-0.455371 0.352017L308.919257 329.447291c-47.357588 38.544875-111.886253 36.931121-119.159914 36.610826-44.834114 0.202615-82.775238 33.994232-88.422865 78.798671l-1.222851 12.138458 0 110.508883 1.222851 12.146645c5.662977 44.900629 43.759643 78.749552 88.722694 78.797647 0.6191-0.010233 1.238201-0.010233 1.853208-0.010233 60.969607 0 111.988584 33.446763 114.15083 34.883485 3.284813 2.199085 79.546707 53.988612 119.461789 140.396587 4.091178 8.849552 0.228197 19.346627-8.625448 23.431665-8.850575 4.086062-19.34151 0.229221-23.432689-8.623401-35.223223-76.257801-104.660688-124.231419-106.968244-125.807311-1.663896-1.079588-46.193065-29.547966-96.124268-28.963659l-0.207731 0.004093c-62.863746 0-116.127857-47.269583-123.895775-109.955274l-0.050142-0.407276-1.422396-14.117532 0-114.057709 1.471514-14.525831c7.766894-62.681598 61.032028-109.952204 123.895775-109.952204l0.981351 0.029676c0.528026 0.022513 57.3031 2.548032 95.707782-28.900214l0.604774-0.469698L498.097874 143.706983c1.964748-1.539053 12.831236-9.857509 27.221991-16.547885 22.880103-10.637268 43.9817-12.178367 61.022819-4.453429 8.647961 3.917216 17.626449 9.086959 24.672936 20.279882 6.941086 11.023054 10.742668 26.069749 11.965519 47.362704l0.029676 1.010003 0 641.97626-0.00614 0.188288c-0.595564 27.813462-3.975545 58.421574-36.755112 69.568449C579.95009 905.237129 573.434699 906.136615 566.925449 906.136615L566.925449 906.136615z" fill="#272636" p-id="5164"></path></svg>