<?xml version="1.0" standalone="no"?><!DOCTYPE svg PUBLIC "-//W3C//DTD SVG 1.1//EN" "http://www.w3.org/Graphics/SVG/1.1/DTD/svg11.dtd"><svg t="1732861310201" class="icon" viewBox="0 0 1024 1024" version="1.1" xmlns="http://www.w3.org/2000/svg" p-id="3169" xmlns:xlink="http://www.w3.org/1999/xlink" width="200" height="200"><path d="M800.426667 493.226667h-204.8c-37.546667 0-68.266667-30.72-68.266667-68.266667v-204.8c0-37.546667 30.72-68.266667 68.266667-68.266667h204.8c37.546667 0 68.266667 30.72 68.266666 68.266667v204.8c0 37.546667-30.72 68.266667-68.266666 68.266667z m0-68.266667v34.133333-34.133333z m-204.8-204.8v204.8h204.8v-204.8h-204.8zM428.373333 865.28h-204.8c-37.546667 0-68.266667-30.72-68.266666-68.266667v-204.8c0-37.546667 30.72-68.266667 68.266666-68.266666h204.8c37.546667 0 68.266667 30.72 68.266667 68.266666v204.8c0 37.546667-30.72 68.266667-68.266667 68.266667z m0-68.266667v34.133334-34.133334z m-204.8-204.8v204.8h204.8v-204.8h-204.8zM805.546667 872.106667h-204.8c-37.546667 0-68.266667-30.72-68.266667-68.266667v-204.8c0-37.546667 30.72-68.266667 68.266667-68.266667h204.8c37.546667 0 68.266667 30.72 68.266666 68.266667v204.8c0 37.546667-30.72 68.266667-68.266666 68.266667z m0-68.266667v34.133333-34.133333z m-204.8-204.8v204.8h204.8v-204.8h-204.8z" fill="#3793DF" p-id="3170"></path><path d="M307.2 493.226667c-35.84 0-69.973333-11.946667-100.693333-32.426667-37.546667-27.306667-61.44-66.56-68.266667-110.933333-6.826667-44.373333 3.413333-90.453333 30.72-126.293334 27.306667-37.546667 66.56-61.44 110.933333-68.266666 44.373333-6.826667 90.453333 3.413333 126.293334 30.72 37.546667 27.306667 61.44 66.56 68.266666 110.933333 15.36 92.16-49.493333 180.906667-141.653333 194.56-8.533333 1.706667-17.066667 1.706667-25.6 1.706667z m0-273.066667c-5.12 0-10.24 0-15.36 1.706667-27.306667 3.413333-51.2 18.773333-66.56 40.96-15.36 22.186667-22.186667 49.493333-18.773333 76.8 3.413333 27.306667 18.773333 51.2 40.96 66.56 22.186667 15.36 49.493333 22.186667 76.8 18.773333 56.32-8.533333 93.866667-61.44 85.333333-117.76-8.533333-51.2-52.906667-87.04-102.4-87.04z" fill="#EB4AF4" p-id="3171"></path></svg>