<?xml version="1.0" standalone="no"?><!DOCTYPE svg PUBLIC "-//W3C//DTD SVG 1.1//EN" "http://www.w3.org/Graphics/SVG/1.1/DTD/svg11.dtd"><svg t="1733642501387" class="icon" viewBox="0 0 1024 1024" version="1.1" xmlns="http://www.w3.org/2000/svg" p-id="7714" xmlns:xlink="http://www.w3.org/1999/xlink" width="200" height="200"><path d="M896 256h-349.866667l-55.466666-102.4c-21.333333-34.133333-59.733333-55.466667-102.4-55.466667h-213.333334C102.4 98.133333 42.666667 157.866667 42.666667 230.4v614.4c0 46.933333 38.4 85.333333 85.333333 85.333333h768c46.933333 0 85.333333-38.4 85.333333-85.333333V341.333333c0-46.933333-38.4-85.333333-85.333333-85.333333zM89.6 230.4c0-51.2 42.666667-89.6 89.6-89.6H384c25.6 0 51.2 12.8 64 38.4L494.933333 256H89.6v-25.6zM938.666667 840.533333c0 21.333333-21.333333 42.666667-42.666667 42.666667H128c-21.333333 0-42.666667-21.333333-42.666667-42.666667V298.666667h810.666667c21.333333 0 42.666667 17.066667 42.666667 42.666666v499.2z" fill="#666666" p-id="7715"></path><path d="M524.8 716.8h-341.333333c-12.8 0-21.333333-8.533333-21.333334-21.333333s8.533333-21.333333 21.333334-21.333334h341.333333c12.8 0 21.333333 8.533333 21.333333 21.333334 0 8.533333-8.533333 21.333333-21.333333 21.333333zM823.466667 524.8h-640c-12.8 0-21.333333-8.533333-21.333334-21.333333s8.533333-21.333333 21.333334-21.333334h640c12.8 0 21.333333 8.533333 21.333333 21.333334s-8.533333 21.333333-21.333333 21.333333z" fill="#666666" p-id="7716"></path></svg>