<?xml version="1.0" standalone="no"?><!DOCTYPE svg PUBLIC "-//W3C//DTD SVG 1.1//EN" "http://www.w3.org/Graphics/SVG/1.1/DTD/svg11.dtd"><svg t="1738565658374" class="icon" viewBox="0 0 1024 1024" version="1.1" xmlns="http://www.w3.org/2000/svg" p-id="4164" xmlns:xlink="http://www.w3.org/1999/xlink" width="200" height="200"><path d="M37.632 607.0016c0-94.7456 48.45056-218.39872 154.96192-266.0864l39.53152-17.77152 4.75136 43.136c2.65216 24.09984 13.78304 77.4144 38.3232 123.58656-3.98336-143.2576 3.67104-380.63104 294.99392-476.26752L611.68128 0v64.26112c-0.12288 131.74784-0.18944 228.14208 45.92128 309.98528 19.60448-65.01888 74.25024-127.89248 184.1152-155.15136l39.53152-9.8048-0.25088 40.73472c-0.63488 85.3248 27.6992 140.34944 55.0912 193.54112 24.7296 47.94368 50.2784 97.53088 50.2784 163.37408C986.36288 836.91008 773.59616 1024 512 1024c-261.60128 0-474.368-187.08992-474.368-416.9984z m675.9424-152.81152l13.8496 95.9488-67.7376-69.3248c-106.07104-108.53376-111.1296-228.77184-111.19104-391.57248-220.29312 94.8736-213.40672 297.71776-209.16736 421.74464 0.95232 27.38688 1.71008 51.10272-0.18944 69.51424l-5.56544 54.01088-44.2112-31.49312C225.16224 557.35296 195.6864 473.5488 182.912 420.66944c-54.016 44.14976-82.03264 121.81504-82.03264 186.27072 0 195.06176 184.43264 353.81248 411.12064 353.81248s411.11552-158.75584 411.11552-353.81248c0-50.47296-20.04992-89.37472-43.25888-134.40512-25.10848-48.70144-53.06368-102.96832-60.3392-180.19328-115.93728 45.8496-108.8512 141.54752-105.94304 161.84832z" p-id="4165"></path></svg>