<?xml version="1.0" standalone="no"?><!DOCTYPE svg PUBLIC "-//W3C//DTD SVG 1.1//EN" "http://www.w3.org/Graphics/SVG/1.1/DTD/svg11.dtd"><svg t="1743854263755" class="icon" viewBox="0 0 1024 1024" version="1.1" xmlns="http://www.w3.org/2000/svg" p-id="5028" xmlns:xlink="http://www.w3.org/1999/xlink" width="200" height="200"><path d="M853.333333 836.266667c-25.6 0-51.2-6.4-72.533333-21.333334-14.933333-8.533333-19.2-27.733333-10.666667-42.666666s27.733333-19.2 42.666667-10.666667c12.8 8.533333 25.6 10.666667 40.533333 10.666667 46.933333 0 87.466667-44.8 87.466667-98.133334 0-55.466667-38.4-98.133333-87.466667-98.133333-17.066667 0-29.866667-12.8-29.866666-29.866667 0-17.066667 12.8-29.866667 29.866666-29.866666 81.066667 0 149.333333 72.533333 149.333334 160s-66.133333 160-149.333334 160z" fill="#FFBB12" p-id="5029"></path><path d="M868.266667 405.333333c-27.733333-98.133333-369.066667-102.4-409.6-102.4-40.533333 0-401.066667 4.266667-409.6 110.933334-8.533333 36.266667-14.933333 74.666667-14.933334 113.066666 0 206.933333 49.066667 443.733333 424.533334 443.733334 285.866667 0 424.533333-145.066667 424.533333-443.733334 2.133333-40.533333-4.266667-83.2-14.933333-121.6z m-409.6-40.533333c200.533333 0 317.866667 32 343.466666 53.333333-27.733333 21.333333-145.066667 53.333333-343.466666 53.333334S142.933333 437.333333 115.2 418.133333c27.733333-21.333333 145.066667-53.333333 343.466667-53.333333z m2.133333 544c-300.8 0-362.666667-151.466667-362.666667-381.866667 0-17.066667 2.133333-34.133333 4.266667-49.066666 102.4 51.2 326.4 53.333333 358.4 53.333333s258.133333-2.133333 360.533333-53.333333c2.133333 17.066667 4.266667 34.133333 4.266667 51.2-2.133333 262.4-113.066667 379.733333-364.8 379.733333z" fill="#543E3E" p-id="5030"></path><path d="M347.733333 439.466667c-8.533333 0-17.066667-4.266667-23.466666-10.666667-57.6-66.133333-34.133333-119.466667-14.933334-162.133333 2.133333-6.4 6.4-12.8 8.533334-19.2 8.533333-21.333333-10.666667-83.2-27.733334-119.466667-8.533333-14.933333-2.133333-34.133333 14.933334-40.533333 14.933333-8.533333 34.133333-2.133333 40.533333 14.933333 8.533333 19.2 53.333333 113.066667 29.866667 168.533333-2.133333 6.4-6.4 14.933333-8.533334 21.333334-19.2 40.533333-25.6 59.733333 4.266667 96 10.666667 12.8 10.666667 32-2.133333 42.666666-6.4 6.4-14.933333 8.533333-21.333334 8.533334zM503.466667 439.466667c-8.533333 0-17.066667-4.266667-23.466667-10.666667-57.6-66.133333-34.133333-119.466667-14.933333-162.133333 2.133333-6.4 6.4-12.8 8.533333-19.2 8.533333-21.333333-10.666667-83.2-27.733333-119.466667-8.533333-14.933333-2.133333-34.133333 14.933333-40.533333 14.933333-8.533333 34.133333-2.133333 40.533333 14.933333 8.533333 19.2 53.333333 113.066667 29.866667 168.533333-2.133333 6.4-6.4 14.933333-8.533333 21.333334-19.2 40.533333-25.6 59.733333 4.266666 96 10.666667 12.8 10.666667 32-2.133333 42.666666-8.533333 6.4-14.933333 8.533333-21.333333 8.533334zM659.2 439.466667c-8.533333 0-17.066667-4.266667-23.466667-10.666667-57.6-66.133333-34.133333-119.466667-14.933333-162.133333 2.133333-6.4 6.4-12.8 8.533333-19.2 8.533333-21.333333-10.666667-83.2-27.733333-119.466667-8.533333-14.933333-2.133333-34.133333 14.933333-40.533333 14.933333-8.533333 34.133333-2.133333 40.533334 14.933333 8.533333 19.2 53.333333 113.066667 29.866666 168.533333-2.133333 6.4-6.4 14.933333-8.533333 21.333334-19.2 40.533333-25.6 59.733333 4.266667 96 10.666667 12.8 10.666667 32-2.133334 42.666666-6.4 6.4-12.8 8.533333-21.333333 8.533334z" fill="#FFBB12" p-id="5031"></path></svg>