<?xml version="1.0" standalone="no"?><!DOCTYPE svg PUBLIC "-//W3C//DTD SVG 1.1//EN" "http://www.w3.org/Graphics/SVG/1.1/DTD/svg11.dtd"><svg t="1743689791887" class="icon" viewBox="0 0 1024 1024" version="1.1" xmlns="http://www.w3.org/2000/svg" p-id="3673" xmlns:xlink="http://www.w3.org/1999/xlink" width="200" height="200"><path d="M778.752 300.544h-77.824v64.512L778.752 424.96V300.544z m-250.368 341.504c-3.584 5.632-9.216 8.704-15.872 8.704s-12.288-3.584-15.872-8.704c-15.36-25.6-36.864-39.424-59.904-39.424-30.72 0-58.88 24.064-67.072 56.832-6.144 24.064-13.824 109.056 143.36 197.632 156.672-88.576 149.504-173.568 143.36-197.632-8.704-33.28-36.864-56.832-67.584-56.832-24.064 0-45.056 14.336-60.416 39.424z" fill="#FDB9D0" p-id="3674"></path><path d="M941.056 549.888l-125.952-96.768c0-1.024 0.512-2.56 0.512-3.584V282.112c0-10.24-8.192-18.432-18.432-18.432h-114.688c-10.24 0-18.432 8.192-18.432 18.432v54.784l-140.288-108.032c-6.656-5.12-15.872-5.12-22.528 0l-417.28 320.512c-6.144 4.608-8.704 12.8-6.144 20.48s9.728 12.288 17.408 12.288h114.176v335.872c0 43.52 35.328 79.36 79.36 79.36h447.488c43.52 0 79.36-35.328 79.36-79.36v-335.872h114.176c7.68 0 14.848-5.12 17.408-12.288 2.56-6.656 0-15.36-6.144-19.968z m-240.128-249.344h77.824V424.96l-77.824-59.904V300.544z m77.824 618.496c0 23.552-18.944 42.496-42.496 42.496H288.768c-23.552 0-42.496-18.944-42.496-42.496V573.44l266.24-201.728 266.24 201.728v345.6z m24.576-372.736l-279.552-211.968c-6.656-5.12-15.872-5.12-22.528 0l-279.552 211.968H149.504l363.008-279.04 363.008 279.04h-72.192z" fill="#3EBAC4" p-id="3675"></path><path d="M436.736 565.76c-48.128 0-90.112 34.816-102.912 84.992-6.656 26.624-8.192 68.608 23.552 118.784 28.672 45.568 77.824 87.552 146.432 125.44 2.56 1.536 5.632 2.048 8.704 2.048 3.072 0 6.144-0.512 8.704-2.048 68.608-37.376 117.76-79.36 146.432-125.44 31.744-50.176 30.208-92.672 23.552-118.784-12.8-49.664-55.296-84.992-102.912-84.992-28.672 0-55.296 12.288-75.776 35.84-20.992-23.04-47.104-35.84-75.776-35.84z m219.136 94.208c6.144 24.064 13.824 109.056-143.36 197.632-156.672-88.576-149.504-173.568-143.36-197.632 8.704-33.28 36.864-56.832 67.072-56.832 23.552 0 44.544 13.824 59.904 39.424 3.584 5.632 9.216 8.704 15.872 8.704s12.288-3.584 15.872-8.704c15.36-25.6 36.864-39.424 59.904-39.424 31.232-0.512 59.392 23.552 68.096 56.832zM731.136 225.28c2.56 1.536 5.632 2.048 8.704 2.048 3.072 0 6.144-0.512 8.704-2.048 39.936-21.504 68.608-46.08 85.504-73.216 19.456-30.72 18.432-56.832 14.336-73.216C840.192 47.616 813.056 25.6 782.336 25.6c-15.872 0-30.208 6.144-42.496 16.896-12.288-10.752-27.136-16.896-42.496-16.896-30.72 0-57.344 22.016-65.536 53.76-4.096 16.384-5.12 42.496 14.336 73.216 16.384 26.624 45.056 51.2 84.992 72.704z m-64-136.704c3.584-14.848 16.384-26.112 30.208-26.112 10.24 0 19.456 6.144 26.624 18.432 3.584 5.632 9.216 8.704 15.872 8.704s12.288-3.584 15.872-8.704c7.168-11.776 16.384-18.432 26.624-18.432 13.824 0 26.112 10.752 30.208 26.112 6.144 24.576-9.728 62.976-72.704 99.84-62.464-36.864-78.848-75.776-72.704-99.84z" fill="#3EBAC4" p-id="3676"></path></svg>