<?xml version="1.0" standalone="no"?><!DOCTYPE svg PUBLIC "-//W3C//DTD SVG 1.1//EN" "http://www.w3.org/Graphics/SVG/1.1/DTD/svg11.dtd"><svg t="1733412311779" class="icon" viewBox="0 0 1024 1024" version="1.1" xmlns="http://www.w3.org/2000/svg" p-id="2413" xmlns:xlink="http://www.w3.org/1999/xlink" width="200" height="200"><path d="M512.1 177.14c78.54 0 142.43 63.89 142.43 142.43S590.64 462 512.1 462s-142.43-63.89-142.43-142.43 63.89-142.43 142.43-142.43m0-78.99c-122.29 0-221.42 99.13-221.42 221.42s99.13 221.42 221.42 221.42c122.29 0 221.42-99.13 221.42-221.42S634.39 98.15 512.1 98.15z" p-id="2414"></path><path d="M512.1 606.29c147.64 0 279.71 97.61 333.49 241.86H178.61C232.39 703.9 364.46 606.29 512.1 606.29m0-78.99c-201.81 0-371.37 144.13-422.29 340.16-7.86 30.26 16.02 59.68 47.29 59.68h750c31.27 0 55.15-29.42 47.29-59.68C883.47 671.43 713.91 527.3 512.1 527.3z" p-id="2415"></path></svg>