<?xml version="1.0" standalone="no"?><!DOCTYPE svg PUBLIC "-//W3C//DTD SVG 1.1//EN" "http://www.w3.org/Graphics/SVG/1.1/DTD/svg11.dtd"><svg t="1756210825811" class="icon" viewBox="0 0 1024 1024" version="1.1" xmlns="http://www.w3.org/2000/svg" p-id="1464" xmlns:xlink="http://www.w3.org/1999/xlink" width="200" height="200"><path d="M382.336 1024s-462.72-99.84-256-595.84c0 0 46.72 55.04 40.32 81.92a519.04 519.04 0 0 1 116.48-200.32c68.48-64 140.8-245.76 76.8-309.76a459.52 459.52 0 0 1 352 391.68s40.32-104.32 123.52-114.56a220.8 220.8 0 0 0 0 143.36S1092.096 896 615.936 1024a407.68 407.68 0 0 0-136.96-540.8 1856 1856 0 0 0-167.04 232.96 283.52 283.52 0 0 0 70.4 307.84z" fill="#FF5533" p-id="1465"></path></svg>