<?xml version="1.0" standalone="no"?><!DOCTYPE svg PUBLIC "-//W3C//DTD SVG 1.1//EN"
        "http://www.w3.org/Graphics/SVG/1.1/DTD/svg11.dtd">
<svg t="1765297595428" class="icon" viewBox="0 0 1024 1024" version="1.1" xmlns="http://www.w3.org/2000/svg" p-id="9495"
     xmlns:xlink="http://www.w3.org/1999/xlink" width="200" height="200">
    <path d="M853.333 1024H170.667C76.8 1024 0 947.2 0 853.333V170.667C0 76.8 76.8 0 170.667 0h682.666C947.2 0 1024 76.8 1024 170.667v682.666C1024 947.2 947.2 1024 853.333 1024z"
          fill="#3AC2B5" p-id="9496"></path>
    <path d="M742.4 793.6H315.733c-46.933 0-85.333-38.4-85.333-85.333V281.6c0-28.16 23.04-51.2 51.2-51.2h375.467c75.093 0 136.533 61.44 136.533 136.533V742.4c0 28.16-23.04 51.2-51.2 51.2z"
          fill="#FFFFFF" p-id="9497"></path>
    <path d="M516.267 640l-3.414 0.853-2.56 3.414z m-59.734 41.813v-20.48l-18.773 6.827z" fill="#3AC2B5"
          p-id="9498"></path>
    <path d="M739.84 354.133l-69.973-54.613-10.24-7.68-7.68 10.24-218.454 287.573-2.56 3.414v4.266l-2.56 83.627v20.48l17.92-6.827 77.654-29.013 3.413-0.853 2.56-3.414 213.333-285.866 7.68-11.094-11.093-10.24z m-226.987 286.72l-56.32 20.48 2.56-58.026 163.84-217.6 50.347 37.546-160.427 217.6z m175.787-240.64L640 362.667l23.893-31.574 49.494 37.547-24.747 31.573z m-58.88 332.8c7.68 0 13.653-6.826 13.653-14.506 0-7.68-6.826-14.507-13.653-14.507H550.4c-7.68 0-13.653 6.827-13.653 14.507s6.826 14.506 13.653 14.506h79.36z m-263.68-29.866h-79.36c-7.68 0-13.653 6.826-13.653 14.506 0 7.68 5.973 14.507 13.653 14.507h77.653c7.68 0 13.654-6.827 13.654-14.507 1.706-7.68-5.12-14.506-11.947-14.506z m0-197.12h-79.36c-7.68 0-13.653 6.826-13.653 14.506 0 7.68 6.826 14.507 13.653 14.507h77.653c7.68 0 13.654-6.827 13.654-14.507 1.706-7.68-5.12-14.506-11.947-14.506z m0 100.693h-79.36c-7.68 0-13.653 6.827-13.653 14.507s6.826 14.506 13.653 14.506h77.653c7.68 0 13.654-6.826 13.654-14.506 1.706-7.68-5.12-14.507-11.947-14.507z"
          fill="#3AC2B5" p-id="9499"></path>
</svg>